<svg width="292" height="227" viewBox="0 0 292 227" fill="none" xmlns="http://www.w3.org/2000/svg">
<path d="M89.2578 153.6C99.7578 132.6 117.258 104.1 166.258 106.1C215.258 108.1 236.258 153.6 237.758 169.6" stroke="#F5BD4F" stroke-width="34" stroke-linecap="round" stroke-linejoin="round"/>
<path d="M46.5 124L10 106.5" stroke="#E9C440" stroke-width="19" stroke-linecap="round" stroke-linejoin="round"/>
<path d="M82.3476 79.2818L50 49" stroke="#E9C440" stroke-width="19" stroke-linecap="round" stroke-linejoin="round"/>
<path d="M135.5 55L130.948 10" stroke="#E9C440" stroke-width="19" stroke-linecap="round" stroke-linejoin="round"/>
<path d="M200.656 66.1574L215 35.5" stroke="#E9C440" stroke-width="19" stroke-linecap="round" stroke-linejoin="round"/>
<path d="M251.411 97.9602L282 71.5" stroke="#E9C440" stroke-width="19" stroke-linecap="round" stroke-linejoin="round"/>
<path d="M128.258 194.5C128.258 168.5 143.758 147 160.758 147C177.758 147 200.258 159.5 201.258 182C202.258 204.5 192.258 220.5 173.258 217C154.258 213.5 146.258 191.5 160.758 188.5" stroke="#DC762C" stroke-width="19" stroke-linecap="round" stroke-linejoin="round"/>
</svg>
